<svg xmlns="http://www.w3.org/2000/svg" width="495" height="111" viewBox="0 0 495 111">
  <g fill="#5d5e5a" fill-rule="evenodd">
    <path fill-rule="non-zero" d="M307.871094,99.452717 C287.143841,101.631176 266.416588,102.720406 245.825699,102.720406 C225.234809,102.720406 204.507556,101.631176 183.780303,99.452717 C182.689395,85.5650379 182.007578,72.3581275 182.007578,58.4704484 C182.007578,44.5827693 182.689395,31.5120126 183.780303,17.4881798 C204.507556,15.3097203 225.234809,14.2204906 245.825699,14.2204906 C266.416588,14.2204906 287.143841,15.3097203 307.871094,17.4881798 C308.962002,31.5120126 309.507456,44.5827693 309.507456,58.4704484 C309.507456,72.3581275 308.962002,85.5650379 307.871094,99.452717 Z M205.189374,58.4704484 C205.189374,67.5927474 205.598464,76.0342778 206.416645,85.1565768 C219.371178,86.2458065 232.871165,86.7904214 245.825699,86.7904214 C258.643868,86.7904214 272.143855,86.2458065 285.098388,85.1565768 C285.916569,76.0342778 286.462023,67.5927474 286.462023,58.4704484 C286.462023,49.3481494 285.916569,40.906619 285.098388,31.78432 C272.143855,30.6950903 258.643868,30.1504754 245.825699,30.1504754 C232.871165,30.1504754 219.371178,30.6950903 206.416645,31.78432 C205.598464,40.906619 205.189374,49.3481494 205.189374,58.4704484 Z"/>
    <path fill-rule="nonzero" d="M388.484799,56.881997 C400.757514,56.881997 411.666595,57.0332789 421.969615,57.0332789 C433.939301,57.0332789 444.999896,56.881997 456.212007,56.2768694 C456.969582,50.5281569 457.424127,44.9307264 457.424127,39.1820139 C457.424127,33.5845834 456.969582,28.8948442 456.212007,23.2974137 C441.818081,22.3897222 428.484761,22.2384403 412.272655,22.2384403 C396.818124,22.2384403 383.636319,22.2384403 369.393908,22.843568 L369.242393,110.435792 L336.363636,110.435792 L336.363636,1.66410098 C361.666643,0.605127628 387.121164,0 412.42417,0 C435.302936,0 464.696847,1.36153716 488.030158,4.68973912 C489.999853,15.4307545 491.363489,25.8692061 491.363489,36.6102215 C491.363489,49.3179017 490.908944,62.3281457 488.030158,75.9435173 C477.424108,76.397363 465.454422,77.6076183 453.636252,78.061464 L494.090759,110.435792 L451.969587,110.435792 L388.484799,60.210199 L388.484799,56.881997 Z" transform="matrix(-1 0 0 1 830.454 0)"/>
    <path fill-rule="nonzero" d="M52.1211624,56.881997 C64.393878,56.881997 75.3029585,57.0332789 85.605979,57.0332789 C97.5756645,57.0332789 108.63626,56.881997 119.848371,56.2768694 C120.605946,50.5281569 121.060491,44.9307264 121.060491,39.1820139 C121.060491,33.5845834 120.605946,28.8948442 119.848371,23.2974137 C105.454445,22.3897222 92.1211243,22.2384403 75.9090185,22.2384403 C60.4544878,22.2384403 47.2726822,22.2384403 33.0302715,22.843568 L32.8787565,110.435792 L0,110.435792 L0,1.66410098 C25.3030062,0.605127628 50.7575274,0 76.0605335,0 C98.9392996,0 128.333211,1.36153716 151.666522,4.68973912 C153.636217,15.4307545 154.999852,25.8692061 154.999852,36.6102215 C154.999852,49.3179017 154.545307,62.3281457 151.666522,75.9435173 C141.060472,76.397363 129.090786,77.6076183 117.272615,78.061464 L157.727122,110.435792 L115.60595,110.435792 L52.1211624,60.210199 L52.1211624,56.881997 Z"/>
  </g>
</svg>
